# xmcd
#
# Track frame offsets:
# 180
# 11921
# 27027
# 37696
# 51909
# 64270
# 87554
# 98424
# 109021
# 127107
# 139080
# 154899
# 167914
# 178418
#
# Disc length: 2583 seconds
#
#
# Revision: 1
# Processed by: cddbd v1.5.2PL0 Copyright (c) Steve Scherf et al.
# Submitted via: FreeRIP 2.944 
#
DISCID=bd0a150e
DTITLE=Bile skaly - Srdce na dlani
DYEAR=1997
DGENRE=Country
TTITLE0=Savana
TTITLE1=Nad uvozem
TTITLE2=Vandrak
TTITLE3=More
TTITLE4=Malajka
TTITLE5=Jizni eskadrona
TTITLE6=Trampove pirati
TTITLE7=Bloudim sem a tam
TTITLE8=Stary korab
TTITLE9=Zlatokop Tom
TTITLE10=Svatojanske proudy
TTITLE11=Mexicka svatba
TTITLE12=Lucni kviti
TTITLE13=Az ztichnou bile skaly
EXTD=
EXTT0=
EXTT1=
EXTT2=
EXTT3=
EXTT4=
EXTT5=
EXTT6=
EXTT7=
EXTT8=
EXTT9=
EXTT10=
EXTT11=
EXTT12=
EXTT13=
PLAYORDER=
